<?xml version="1.0" encoding="UTF-8"?>
<svg version="1.1" viewBox="0 0 2048 1669" width="612" height="499" xmlns="http://www.w3.org/2000/svg">
<path transform="translate(0)" d="m0 0h2048v1669h-2048z" fill="#FFFFFD"/>
<path transform="translate(781,295)" d="m0 0h40l4 1 12 61 6 28v2h13l33 3 33 5 27 6 19 5 3 1 14-25 14-26 11-20 5-10 10 2 23 7 27 11 19 10 17 10 9 6-1 8-21 61-6 18 1 3 19 12 18 13 14 11 13 11 10 9 16 15 4 4-2 4-13 12-14 12-15 14-11 9-7 7-11 9-14 13-4-2-20-18-14-11-16-12-19-12-19-11-29-14-29-11-24-7-27-6-26-4-23-2h-43l-30 3-32 6-31 8-25 9-25 11-25 13-21 13-14 10-13 10-14 12-8 7-13 12-13 14-9 11-14 18-15 23-11 19-14 28-11 29-8 26-7 31-4 29-2 28v16l2 32 4 29 6 28 10 33 11 27 12 25 12 21 12 18 14 19 12 14 11 12 20 20 11 9 12 10 17 12 19 12 16 9 29 14 26 10 19 6 28 7 23 4 38 4 1 2-6 39-11 78-15-1-37-5-42-9-12-3h-4l-13 24-10 18-14 26-6 11-8-1-36-12-19-8-22-12-16-10-4-4 1-6 10-29 15-44 2-7-4-4-24-16-16-12-16-13-15-13-8-8-8-7-9-9-5 2-22 13-21 13-23 14-6 4-4-1-10-9-9-10-11-13-12-17-11-17-12-23 1-4 8-8 11-9 12-11 11-9 11-10 11-9 3-3-2-5-14-28-10-24-11-31-9-32v-2l-68 2h-24l-3-8-5-22-4-25-1-12v-43l2-5 86-17h3l2-32 4-32 5-27 9-38v-2l-6-2-23-12-23-13-25-13-3-2 2-11 11-33 13-28 10-18 10-15 7 1 53 18 25 9 4 2 2-5 6-10 14-20 14-18 11-13 9-10 7-8 18-18-2-4-15-24-9-15-13-21-8-13 1-4 17-17 11-9 15-12 19-12 21-12 6-3 5 1 7 8 24 28 9 10 9 11 8 9v2l23-11 17-8 28-11 30-10 25-7-2-78v-14l9-3 27-6 22-3z" fill="#2B4652"/>
<path transform="translate(1106,800)" d="m0 0h32l10 3 6 5 8 14 12 23 34 68 5 6 8 3 121 18 24 4 12 5 8 6 7 8 4 8 3 14 2 21 1 30v17l8 2 8 7 6 11 1 11-3 9-4 6-7 7-4 2-43 1-3 1v7l2 6-5 5v5l1 5-3 3-4 2v9l-3 3-6 2-1 9-10 2-2 7-2 2h-8l-2 1-1 6h-13l-5 5-6-2h-5l-2 3h-6l-5-3-5 1-4 1-6-5-9 1-3-2-2-5-11-1-2-7-1-1-8-1-3-10-7-2-1-2v-8l-8-6 1-5 1-6-4-1-3-3 1-4 1-1-1-7-3-4h-306l-3 5 1 5 2 4-5 5v11l-3 3-4 2v9l-8 4-2 8-2 2-7 1-3 8-6 1-5 1-1 5-7 1-5-1-7 7-6-3-5 1-2 2-7-1-3-2-4 1-6 1-6-5-9 1v-2l-3-1-2-4h-8l-3-2-3-8h-7l-4-10-7-2-1-11-6-3-1-5 1-8-5-2-1-5 2-2-1-7-3-4-91-1-6-5-6-9-3-7v-11l4-11 9-10 9-2 1-50 2-39 10-73 9-64 4-11 8-8 8-4 11-1z" fill="#2B4652"/>
<path transform="translate(1768,977)" d="m0 0 12 1 8 3-1 17 20 10 11-9 5 1 10 9 1 5-8 10 1 5 7 10 4 6 11-2h5l4 10 1 10-14 6 1 23 13 5 2 4-4 16-1 1-16-1-10 18 1 5 7 7 1 4-12 13-4-1-8-6-5-1-10 7-8 5 2 10v6l-9 4-10 1-4-8-2-7-24 2-5 14h-8l-13-4 1-8v-9l-20-10-8 7-3 3-5-2-8-7v-2h-2l-1-4 8-10 1-2-3-5-7-11-2-4-9 2h-8l-3-7-2-8 1-5 13-5 1-3-1-13 1-8-10-3-6-3v-7l4-12 2-1 15 2 8-16 1-7-8-8-1-3 11-12 1-1h5l7 6v2l5-1 15-9 4-1-3-12v-6l10-4 10-1 5 13v2l18-1h6l3-9z" fill="#2B4652"/>
<path transform="translate(1846,827)" d="m0 0h14l1 1 1 11 13 5 4-1 6-7 5 2 7 5-1 5-3 5 2 4 7 9 7-1 6-1 5 8 1 5-9 6 2 12 2 5 9 1 2 4-1 10-2 2h-11l-2 10-2 4 1 4 7 6-2 5-6 7-5-2-3-2-4 1-9 7-1 6 2 4-1 5-10 5-3-1-4-7-4-1-13 3-3 11-3 1-11-1-1-2v-11l-9-2-8-2-5 7-7-1-7-6 4-8-1-5-8-9-7 1-5 1-4-4-2-5v-5l8-5-1-8-3-9-9-1-1-1v-13l2-2 10-1 3-8 2-10-5-2-2-1 1-7 6-7 7 2v2l7-2 8-7v-6l-2-3 1-5 8-4h6l4 8 12-2 5-2z" fill="#2B4652"/>
<path transform="translate(1567,1044)" d="m0 0h9l5 2v11l14 7 7-6 5 1 5 6v5l-4 4 1 5 6 9 11-1 3 4 1 10-9 3 1 16 10 5-1 8-2 5h-11l-6 12 1 4 4 5-1 4-6 7-5-2-4-3-4 1-9 5-1 6 1 6-4 3-10 1-3-8h-18l-1 8-2 2-12-2-1-1 1-10-14-8-7 6h-5l-7-8 2-4 3-4h2l-9-14-12 1-3-9 1-5 8-4-1-15-2-2-7-2v-8l2-6h8l3 1 6-11v-5l-5-5 1-4 3-5 5-3 4 2v2l6 1 11-7 1-2-2-9 9-4h5l3 7v2h18l1-9z" fill="#2B4652"/>
<path transform="translate(1747,1019)" d="m0 0h13l14 3 16 8 10 8 9 11 6 13 3 13v18l-3 12-5 11-7 10-9 9-10 6-11 5-10 2h-19l-12-3-14-7-10-8-7-8-8-15-3-10-1-7v-13l3-14 8-16 8-10 11-8 14-7z" fill="#FFFFFD"/>
<path transform="translate(878,841)" d="m0 0h119v89l-19 1h-99l-1-1-1-10v-78z" fill="#FFFFFD"/>
<path transform="translate(713,841)" d="m0 0h109l1 1v87l-1 1-31 1h-83l-5-1 2-23 6-59z" fill="#FFFFFD"/>
<path transform="translate(1275,1055)" d="m0 0h15l14 4 12 7 9 9 7 12 3 9 1 7v10l-2 10-5 12-7 9-10 9-11 5-10 3h-17l-15-5-10-6-8-8-6-10-5-13-1-13 3-16 6-12 10-11 11-7 11-4z" fill="#FFFFFD"/>
<path transform="translate(804,1055)" d="m0 0h13l10 2 10 4 12 9 8 10 6 14 1 5v18l-4 13-7 12-8 8-14 8-11 3h-18l-15-5-9-6-6-5-7-10-5-11-2-10v-12l3-12 6-12 10-11 11-7 11-4z" fill="#FFFFFD"/>
<path transform="translate(1048,841)" d="m0 0h77l7 14 26 56 8 16v3l-72 1h-46l-1-1v-88z" fill="#FFFFFD"/>
<path transform="translate(1844,858)" d="m0 0h11l11 3 10 5 6 5 8 11 5 15v15l-4 13-7 10-8 8-10 5-10 3h-15l-12-4-10-6-7-7-6-10-3-9-1-6v-10l3-12 6-10 7-8 9-6 10-4z" fill="#FFFFFD"/>
<path transform="translate(1557,1072)" d="m0 0 12 1 11 4 8 6 7 7 6 12 2 8v14l-4 11-6 10-9 8-10 5-8 2h-13l-13-4-8-5-5-5-6-7-4-9-2-9v-8l2-10 4-9 6-8 8-7 10-5z" fill="#FFFFFD"/>
<path transform="translate(1256,1252)" d="m0 0h92l1 1v33h-108l-1-1v-32z" fill="#2B4652"/>
<path transform="translate(1406,1252)" d="m0 0h89v34h-108l-1-1v-32z" fill="#2B4652"/>
<path transform="translate(1125,1252)" d="m0 0h59l19 1v33h-108l-1-1v-31l1-1z" fill="#2B4652"/>
<path transform="translate(974,1252)" d="m0 0h56l27 1v33h-108l-1-5v-28z" fill="#2B4652"/>
<path transform="translate(1386,1367)" d="m0 0h109v33l-4 1-105-1z" fill="#2B4652"/>
<path transform="translate(1241,1367)" d="m0 0h108v33l-5 1-103-1-1-2v-30z" fill="#2B4652"/>
<path transform="translate(1459,1310)" d="m0 0h109v33h-109z" fill="#2B4652"/>
<path transform="translate(1095,1367)" d="m0 0h108v33h-109v-32z" fill="#2B4652"/>
<path transform="translate(949,1367)" d="m0 0h108v33h-109v-32z" fill="#2B4652"/>
<path transform="translate(1022,1310)" d="m0 0h108v33h-108l-1-1v-31z" fill="#2B4652"/>
<path transform="translate(875,1310)" d="m0 0h108l1 1v32h-109z" fill="#2B4652"/>
<path transform="translate(1168,1310)" d="m0 0h108v33h-108l-1-1v-31z" fill="#2B4652"/>
<path transform="translate(1314,1310)" d="m0 0h108v33h-108l-1-9v-23z" fill="#2B4652"/>
<path transform="translate(1280,1079)" d="m0 0 11 1 10 5 6 7 4 9v14l-6 12-9 7-10 3h-7l-10-3-8-7-4-5-3-8v-12l4-10 6-7 10-5z" fill="#2B4652"/>
<path transform="translate(810,1079)" d="m0 0 12 2 10 6 6 10 2 7v9l-4 11-5 6-8 5-7 2h-10l-10-4-8-7-5-10v-15l4-9 6-7 10-5z" fill="#2B4652"/>
</svg>
